<?xml version="1.0" standalone="no"?><!DOCTYPE svg PUBLIC "-//W3C//DTD SVG 1.1//EN" "http://www.w3.org/Graphics/SVG/1.1/DTD/svg11.dtd"><svg t="1585799802451" class="icon" viewBox="0 0 1024 1024" version="1.1" xmlns="http://www.w3.org/2000/svg" p-id="2351" xmlns:xlink="http://www.w3.org/1999/xlink" width="200" height="200"><defs><style type="text/css"></style></defs><path d="M386.1 484.7h-289C43.9 484.7 0.6 441.4 0.6 388.2v-289C0.6 46 43.9 2.7 97.1 2.7h289c53.2 0 96.5 43.3 96.5 96.5v289c0.1 53.2-43.2 96.5-96.5 96.5zM97.1 62.6C77 62.6 60.6 79 60.6 99.1v289c0 20.1 16.4 36.5 36.5 36.5h289c20.1 0 36.5-16.4 36.5-36.5v-289c0-20.1-16.4-36.5-36.5-36.5h-289zM926.7 484.2h-289c-53.2 0-96.5-43.3-96.5-96.5v-289c0-53.2 43.3-96.5 96.5-96.5h289c53.2 0 96.5 43.3 96.5 96.5v289c0 53.2-43.3 96.5-96.5 96.5z m-289-422c-20.1 0-36.5 16.4-36.5 36.5v289c0 20.1 16.4 36.5 36.5 36.5h289c20.1 0 36.5-16.4 36.5-36.5v-289c0-20.1-16.4-36.5-36.5-36.5h-289zM386.8 1024h-289c-53.2 0-96.5-43.3-96.5-96.5v-289c0-53.2 43.3-96.5 96.5-96.5h289c53.2 0 96.5 43.3 96.5 96.5v289c0 53.2-43.3 96.5-96.5 96.5z m-289-422.1c-20.1 0-36.5 16.4-36.5 36.5v289c0 20.1 16.4 36.5 36.5 36.5h289c20.1 0 36.5-16.4 36.5-36.5v-289c0-20.1-16.4-36.5-36.5-36.5h-289zM927.4 1023.6h-289c-53.2 0-96.5-43.3-96.5-96.5V638c0-53.2 43.3-96.5 96.5-96.5h289c53.2 0 96.5 43.3 96.5 96.5v289c0 53.3-43.3 96.6-96.5 96.6z m-289-422.1c-20.1 0-36.5 16.4-36.5 36.5v289c0 20.1 16.4 36.5 36.5 36.5h289c20.1 0 36.5-16.4 36.5-36.5V638c0-20.1-16.4-36.5-36.5-36.5h-289z" p-id="2352" fill="#f4ea2a"></path></svg>